<svg width="95" height="22" viewBox="0 0 95 22" fill="none" xmlns="http://www.w3.org/2000/svg">
<path fill-rule="evenodd" clip-rule="evenodd" d="M56.4729 19.9794H56.5831V18.5118H56.4729C56.4616 18.6516 56.3707 18.7243 56.2015 18.7299H54.5238V17.9519H57.4316C57.485 17.9519 57.5236 17.9678 57.5475 18.0007C57.5668 18.0314 57.5838 18.1041 57.5963 18.2142H57.7053V16.5718H57.5963C57.5838 16.6729 57.5668 16.7433 57.5475 16.7842C57.5225 16.8205 57.485 16.8376 57.4305 16.8376H52.862V16.9489C52.9778 16.9546 53.0505 16.975 53.0801 17.0091C53.1039 17.0341 53.1153 17.0693 53.1153 17.1181V21.5174C53.1153 21.5548 53.1039 21.5878 53.0801 21.6196C53.0505 21.6491 52.9778 21.6718 52.862 21.6832V21.7922H57.4305C57.5191 21.7866 57.5747 21.8547 57.5963 22.0001H57.7053V20.3599H57.5963C57.5838 20.4689 57.5668 20.5416 57.5475 20.578C57.5236 20.6223 57.485 20.6439 57.4316 20.6439H54.5238V19.7602H56.2015C56.2912 19.7602 56.3571 19.7783 56.3991 19.8158C56.4434 19.8522 56.4661 19.9067 56.4729 19.9794ZM35.9114 19.8315L36.0034 19.8781C35.9909 19.9246 35.9841 19.9882 35.9841 20.0746C35.9841 20.0996 36.0022 20.1314 36.0374 20.1723C36.0613 20.2086 36.1011 20.2438 36.1578 20.2813C36.268 20.3574 36.4134 20.4301 36.5952 20.496C36.9779 20.6607 37.4153 20.7459 37.9094 20.7527C38.7976 20.7527 39.2383 20.5391 39.2326 20.1098C39.2326 20.0189 39.1804 19.9462 39.077 19.894C38.9725 19.8519 38.834 19.8167 38.6579 19.7929C38.2819 19.7565 37.8469 19.7122 37.3528 19.66C37.1211 19.6214 36.8973 19.5793 36.6815 19.5305C36.4611 19.4726 36.2567 19.3965 36.067 19.301C35.6774 19.1204 35.4809 18.8103 35.4741 18.373C35.4741 17.8892 35.6774 17.5018 36.084 17.2144C36.4827 16.9316 37.0188 16.7885 37.6935 16.7828C38.3262 16.7885 38.8544 16.8498 39.2792 16.9668C39.4939 17.0179 39.6665 17.0622 39.8006 17.0997C39.9392 17.152 40.0368 17.1781 40.0914 17.1781C40.1993 17.1724 40.2833 17.1258 40.339 17.035L40.4378 17.0736L39.8085 18.3833L39.6972 18.3242V18.222C39.6972 18.1515 39.6393 18.0879 39.5223 18.0334C39.4155 17.9755 39.2679 17.9255 39.0782 17.8812C38.6829 17.7801 38.2558 17.7279 37.798 17.7199C37.4096 17.7279 37.137 17.7722 36.9791 17.8551C36.8087 17.9437 36.7281 18.0482 36.7349 18.1674C36.7349 18.2663 36.7917 18.3412 36.9075 18.3923C37.0109 18.4469 37.1517 18.4878 37.3267 18.5116C37.7038 18.5582 38.1388 18.6025 38.6318 18.6445C39.1236 18.6888 39.5586 18.8138 39.9358 19.0239C40.3072 19.2374 40.498 19.6123 40.5094 20.145C40.5162 20.5709 40.3367 20.9537 39.9721 21.2899C39.7813 21.4569 39.5212 21.5875 39.1883 21.6864C38.8521 21.7943 38.4353 21.8477 37.9366 21.8477C37.1881 21.8363 36.6258 21.7591 36.2487 21.6205C36.1726 21.5956 36.1019 21.5727 36.0366 21.5516C35.9412 21.5208 35.8574 21.4937 35.7853 21.4694C35.6683 21.4308 35.5831 21.4126 35.5263 21.4126C35.4911 21.4126 35.4616 21.4228 35.4366 21.441C35.4025 21.4728 35.3718 21.5058 35.348 21.5398L35.2332 21.5114L35.9114 19.8315ZM32.1738 17.0083C32.201 17.0333 32.2135 17.0696 32.2135 17.1173V19.6446C32.2022 20.3352 31.825 20.6737 31.0833 20.6612C30.3371 20.6737 29.9599 20.3352 29.9543 19.6446V17.1173C29.9543 17.0696 29.9679 17.0333 29.9986 17.0083C30.0326 16.9753 30.1019 16.9537 30.2042 16.9481V16.8368H28.2925V16.9481C28.4083 16.9537 28.481 16.9753 28.5117 17.0083C28.5356 17.0333 28.5481 17.0696 28.5481 17.1173V19.6446C28.5537 20.4602 28.8014 21.0327 29.2909 21.3609C29.7714 21.6915 30.3677 21.8539 31.0856 21.8482C31.8069 21.8539 32.4055 21.6915 32.8848 21.3609C33.3698 21.0327 33.614 20.4602 33.6197 19.6446V17.1173C33.6197 17.0696 33.6345 17.0333 33.6652 17.0083C33.7015 16.9753 33.7731 16.9537 33.8776 16.9481V16.8368H31.9602V16.9481C32.0727 16.9537 32.1454 16.9753 32.1738 17.0083ZM24.6198 20.7985H23.0772V19.6581H24.6198C24.9355 19.6581 25.1661 19.7001 25.3115 19.7831C25.4444 19.8705 25.5114 20.0182 25.5114 20.2283C25.5114 20.4384 25.4444 20.585 25.3115 20.6656C25.1661 20.7542 24.9355 20.7985 24.6198 20.7985ZM24.3097 18.7024H23.0772V17.8312H24.3097C24.689 17.8312 24.9514 17.8539 25.0957 17.896C25.2297 17.963 25.2911 18.0856 25.2854 18.2674C25.2911 18.448 25.2297 18.5673 25.0957 18.6195C24.9514 18.6797 24.689 18.7081 24.3097 18.7024ZM21.6349 17.0092C21.6576 17.033 21.6701 17.0694 21.6701 17.1171V21.5163C21.6701 21.5526 21.6576 21.5867 21.6349 21.6185C21.6054 21.6492 21.5327 21.6708 21.418 21.6833V21.7923H24.9551C25.6025 21.7855 26.0773 21.6492 26.3783 21.3789C26.6646 21.1153 26.8088 20.7882 26.8088 20.3975C26.8031 20.051 26.6998 19.783 26.5044 19.5899C26.4124 19.4933 26.2999 19.4127 26.1682 19.3456C26.0307 19.282 25.8785 19.2309 25.7127 19.1923V19.1741C25.983 19.1105 26.2011 18.9935 26.3658 18.8266C26.5294 18.6573 26.6134 18.429 26.6191 18.145C26.6134 17.6759 26.4533 17.3397 26.1398 17.1375C25.824 16.9387 25.4128 16.8376 24.9062 16.8376H21.418V16.9478C21.5327 16.9546 21.6054 16.9751 21.6349 17.0092ZM41.9663 21.6826V21.7916H43.8825V21.6826C43.7792 21.6712 43.7099 21.6485 43.6735 21.619C43.6451 21.586 43.6292 21.5542 43.6292 21.5156V17.1175C43.6292 17.0687 43.6451 17.0335 43.6735 17.0085C43.7099 16.9744 43.7792 16.954 43.8825 16.9483V16.837H41.9663V16.9483C42.0822 16.954 42.1549 16.9744 42.1878 17.0085C42.2105 17.0335 42.223 17.0687 42.223 17.1175V21.5156C42.223 21.5542 42.2105 21.586 42.1878 21.619C42.1549 21.6485 42.0822 21.6712 41.9663 21.6826ZM45.8066 17.1173C45.8066 17.0696 45.7952 17.0333 45.7714 17.0083C45.7407 16.9753 45.668 16.9537 45.5533 16.9481V16.8368H47.7478V16.9481C47.6524 16.9481 47.5865 16.9628 47.5479 16.989C47.5115 17.0151 47.4934 17.0412 47.4934 17.073C47.4934 17.0969 47.582 17.2082 47.758 17.4035C47.9227 17.5966 48.1283 17.8352 48.3714 18.1169C48.8939 18.7087 49.3414 19.2153 49.7117 19.6344V17.1173C49.706 17.0105 49.6413 16.9537 49.5209 16.9481V16.8368H51.1906V16.9481C51.0895 16.9537 51.018 16.9753 50.9794 17.0083C50.9487 17.0333 50.9351 17.0696 50.9351 17.1173V21.5165C50.9351 21.554 50.9487 21.587 50.9794 21.6188C51.018 21.6483 51.0895 21.671 51.1906 21.6835V21.7914H49.4562V21.6835C49.6038 21.6835 49.6742 21.6483 49.6663 21.5801C49.6867 21.5676 49.5482 21.3905 49.2551 21.0497C48.9405 20.718 48.1976 19.8843 47.0299 18.5485V21.5165C47.0299 21.554 47.0447 21.587 47.0754 21.6188C47.1083 21.6483 47.1787 21.671 47.2832 21.6835V21.7914H45.5533V21.6835C45.668 21.671 45.7407 21.6483 45.7714 21.6188C45.7952 21.587 45.8066 21.554 45.8066 21.5165V17.1173ZM59.4731 19.8315L59.564 19.8781C59.5515 19.9246 59.5458 19.9882 59.5458 20.0746C59.5458 20.0996 59.564 20.1314 59.5992 20.1723C59.6231 20.2086 59.6628 20.2438 59.7196 20.2813C59.8298 20.3574 59.9752 20.4301 60.1569 20.496C60.5386 20.6607 60.977 20.7459 61.47 20.7527C62.3582 20.7527 62.8001 20.5391 62.7944 20.1098C62.7944 20.0189 62.7422 19.9462 62.6388 19.894C62.5332 19.8519 62.3946 19.8167 62.2197 19.7929C61.8426 19.7565 61.4075 19.7122 60.9157 19.66C60.6828 19.6214 60.4591 19.5793 60.2433 19.5305C60.0229 19.4726 59.8184 19.3965 59.6288 19.301C59.2403 19.1204 59.0426 18.8103 59.0358 18.373C59.0358 17.8892 59.2403 17.5018 59.6469 17.2144C60.0445 16.9316 60.5806 16.7885 61.2542 16.7828C61.8869 16.7885 62.4173 16.8498 62.841 16.9668C63.0557 17.0179 63.2295 17.0622 63.3624 17.0997C63.5021 17.152 63.5986 17.1781 63.652 17.1781C63.761 17.1724 63.8462 17.1258 63.9019 17.035L63.9996 17.0736L63.3703 18.3833L63.259 18.3242V18.222C63.259 18.1515 63.2011 18.0879 63.0852 18.0334C62.9784 17.9755 62.8296 17.9255 62.6388 17.8812C62.2435 17.7801 61.8176 17.7279 61.3598 17.7199C60.9714 17.7279 60.6987 17.7722 60.5409 17.8551C60.3705 17.9437 60.2898 18.0482 60.2955 18.1674C60.2955 18.2663 60.3534 18.3412 60.4693 18.3923C60.5738 18.4469 60.7124 18.4878 60.8873 18.5116C61.2644 18.5582 61.6994 18.6025 62.1935 18.6445C62.6854 18.6888 63.1204 18.8138 63.4975 19.0239C63.869 19.2374 64.0598 19.6123 64.0723 20.145C64.0791 20.5709 63.8985 20.9537 63.5327 21.2899C63.343 21.4569 63.0818 21.5875 62.7501 21.6864C62.4139 21.7943 61.9959 21.8477 61.4984 21.8477C60.7487 21.8363 60.1865 21.7591 59.8105 21.6205C59.7344 21.5956 59.6637 21.5727 59.5985 21.5517L59.5984 21.5516L59.5982 21.5515C59.5029 21.5207 59.4192 21.4937 59.3471 21.4694C59.2301 21.4308 59.1449 21.4126 59.0881 21.4126C59.0529 21.4126 59.0222 21.4228 58.9995 21.441C58.9643 21.4728 58.9336 21.5058 58.9097 21.5398L58.7939 21.5114L59.4731 19.8315ZM65.8468 19.8781L65.7548 19.8315L65.0767 21.5114L65.1926 21.5398C65.2164 21.5058 65.2471 21.4728 65.2812 21.441C65.305 21.4228 65.3357 21.4126 65.3709 21.4126C65.4265 21.4126 65.5129 21.4308 65.6299 21.4694C65.6986 21.4928 65.7789 21.5187 65.8698 21.5481C65.938 21.5702 66.0123 21.5942 66.0922 21.6205C66.4693 21.7591 67.0315 21.8363 67.7801 21.8477C68.2787 21.8477 68.6956 21.7943 69.0318 21.6864C69.3646 21.5875 69.6259 21.4569 69.8155 21.2899C70.1802 20.9537 70.3619 20.5709 70.3539 20.145C70.3426 19.6123 70.1518 19.2374 69.7803 19.0239C69.4032 18.8138 68.9682 18.6888 68.4752 18.6445C67.9823 18.6025 67.5472 18.5582 67.1701 18.5116C66.9952 18.4878 66.8555 18.4469 66.7521 18.3923C66.6351 18.3412 66.5783 18.2663 66.5783 18.1674C66.5715 18.0482 66.6544 17.9437 66.8225 17.8551C66.9804 17.7722 67.253 17.7279 67.6426 17.7199C68.1004 17.7279 68.5263 17.7801 68.9216 17.8812C69.1113 17.9255 69.2601 17.9755 69.368 18.0334C69.4839 18.0879 69.5407 18.1515 69.5407 18.222V18.3242L69.6531 18.3833L70.2812 17.0736L70.1836 17.035C70.1279 17.1258 70.0427 17.1724 69.9348 17.1781C69.8803 17.1781 69.7837 17.152 69.6452 17.0997C69.5111 17.0622 69.3373 17.0179 69.1227 16.9668C68.699 16.8498 68.1697 16.7885 67.537 16.7828C66.8634 16.7885 66.3262 16.9316 65.9286 17.2144C65.522 17.5018 65.3175 17.8892 65.3175 18.373C65.3243 18.8103 65.522 19.1204 65.9104 19.301C66.1012 19.3965 66.3046 19.4726 66.5249 19.5305C66.7419 19.5793 66.9656 19.6214 67.1985 19.66C67.6903 19.7122 68.1242 19.7565 68.5025 19.7929C68.6763 19.8167 68.816 19.8519 68.9205 19.894C69.0238 19.9462 69.0772 20.0189 69.0772 20.1098C69.0829 20.5391 68.6411 20.7527 67.7528 20.7527C67.2598 20.7459 66.8214 20.6607 66.4386 20.496C66.2569 20.4301 66.1115 20.3574 66.0024 20.2813C65.9456 20.2438 65.9059 20.2086 65.8809 20.1723C65.8457 20.1314 65.8275 20.0996 65.8275 20.0746C65.8275 19.9882 65.8332 19.9246 65.8468 19.8781Z" fill="#F4F4F4"/>
<path fill-rule="evenodd" clip-rule="evenodd" d="M78.0348 11.6315C77.3859 11.8153 76.6938 11.9072 75.9587 11.9072C75.2235 11.9072 74.5315 11.8153 73.8825 11.6315C73.2335 11.4477 72.6649 11.1606 72.1768 10.77C71.6886 10.3795 71.3009 9.89708 71.0138 9.32275C70.7266 8.74843 70.583 8.08222 70.583 7.32411C70.583 6.56601 70.7266 5.89979 71.0138 5.32547C71.3009 4.75115 71.6886 4.26872 72.1768 3.87818C72.6649 3.48764 73.2335 3.19186 73.8825 2.99085C74.5315 2.78984 75.2235 2.68933 75.9587 2.68933C76.6938 2.68933 77.3859 2.78984 78.0348 2.99085C78.6838 3.19186 79.2524 3.48764 79.7406 3.87818C80.2288 4.26872 80.6164 4.75115 80.9036 5.32547C81.1907 5.89979 81.3343 6.56601 81.3343 7.32411C81.3343 8.08222 81.1907 8.74843 80.9036 9.32275C80.6164 9.89708 80.2288 10.3795 79.7406 10.77C79.2524 11.1606 78.6838 11.4477 78.0348 11.6315ZM24.9226 11.8562V11.6494C24.7044 11.6265 24.5694 11.5891 24.5177 11.5375C24.466 11.4858 24.4402 11.4197 24.4402 11.3393V9.27175L26.1287 7.75554C26.1746 7.82446 26.2665 7.95655 26.4044 8.15182C26.5422 8.34709 26.6973 8.57682 26.8696 8.84101C27.0419 9.1052 27.2256 9.38087 27.4209 9.66803C27.6162 9.95519 27.7942 10.2251 27.955 10.4778C28.1158 10.7305 28.2479 10.943 28.3513 11.1153C28.4547 11.2876 28.5064 11.391 28.5064 11.4255C28.5064 11.5403 28.4777 11.6064 28.4202 11.6236C28.3628 11.6408 28.2824 11.6494 28.179 11.6494V11.8562H32.1246V11.6494C32.0097 11.6494 31.9121 11.638 31.8317 11.615C31.7513 11.592 31.6651 11.5116 31.5733 11.3738L28.0584 6.11872L31.0391 3.5515C31.1425 3.45961 31.2315 3.38208 31.3062 3.3189C31.3809 3.25572 31.4498 3.20116 31.513 3.15522C31.5761 3.10927 31.645 3.07481 31.7197 3.05184C31.7944 3.02887 31.8891 3.01164 32.004 3.00015V2.7934H27.6277V3.00015C27.7196 3.01164 27.7942 3.026 27.8516 3.04323C27.9091 3.06046 27.9378 3.12076 27.9378 3.22414C27.9378 3.27008 27.8258 3.39931 27.6018 3.6118C27.3778 3.8243 27.0993 4.08275 26.7662 4.38714C26.4331 4.69153 26.0684 5.02177 25.6721 5.37785C25.2758 5.73393 24.9054 6.07852 24.5608 6.41163H24.4402V3.31029C24.4402 3.22988 24.466 3.16383 24.5177 3.11214C24.5694 3.06046 24.7044 3.02312 24.9226 3.00015V2.7934H21.3733V3.00015C21.5915 3.02312 21.7265 3.06046 21.7782 3.11214C21.8299 3.16383 21.8557 3.22988 21.8557 3.31029V11.3393C21.8557 11.4197 21.8299 11.4858 21.7782 11.5375C21.7265 11.5891 21.5915 11.6265 21.3733 11.6494V11.8562H24.9226ZM36.1739 11.8562V11.6494C36.0476 11.6494 35.9643 11.6351 35.9241 11.6064C35.8839 11.5777 35.8638 11.5346 35.8638 11.4771C35.8638 11.4542 35.8724 11.4168 35.8897 11.3652C35.9069 11.3135 35.9356 11.2302 35.9758 11.1153C36.016 11.0005 36.0706 10.8454 36.1395 10.6501C36.2084 10.4549 36.3003 10.2022 36.4152 9.89202H40.4986C40.5101 9.94945 40.5474 10.0586 40.6106 10.2194C40.6738 10.3802 40.7398 10.5496 40.8087 10.7277C40.8776 10.9057 40.9408 11.0665 40.9983 11.2101C41.0557 11.3537 41.0844 11.4312 41.0844 11.4427C41.0844 11.569 40.9753 11.638 40.757 11.6494V11.8562H44.1513V11.6494C44.0479 11.6494 43.9646 11.615 43.9015 11.5461C43.8383 11.4771 43.7607 11.3393 43.6688 11.1326C43.4851 10.6961 43.2812 10.2022 43.0572 9.6508C42.8332 9.09946 42.6006 8.53375 42.3594 7.95368C42.1182 7.37362 41.8856 6.80504 41.6616 6.24794C41.4376 5.69085 41.2395 5.19119 41.0672 4.74896C40.8949 4.30673 40.7542 3.94778 40.645 3.67211C40.5359 3.39643 40.4814 3.24711 40.4814 3.22414C40.4814 3.13225 40.5101 3.07481 40.5675 3.05184C40.6249 3.02887 40.6996 3.01164 40.7915 3.00015V2.7934H36.2946V3.00015C36.375 3.01164 36.4525 3.02887 36.5272 3.05184C36.6018 3.07481 36.6391 3.11502 36.6391 3.17245C36.6391 3.18393 36.5961 3.30454 36.5099 3.53427L36.1739 4.43021C36.0361 4.79778 35.8782 5.21416 35.7001 5.67937C35.5221 6.14457 35.3412 6.62125 35.1574 7.10943C34.9736 7.5976 34.7898 8.07716 34.606 8.54811C34.4223 9.01905 34.2557 9.44692 34.1064 9.83172C33.9571 10.2165 33.8365 10.5353 33.7446 10.788C33.6527 11.0407 33.5952 11.1957 33.5723 11.2532C33.5148 11.391 33.4574 11.4858 33.4 11.5375C33.3425 11.5891 33.2506 11.6265 33.1243 11.6494V11.8562H36.1739ZM36.8455 8.51254H40.0503L38.379 4.41188L36.8455 8.51254ZM49.8036 11.8562V11.6494C49.5854 11.6265 49.4504 11.5891 49.3987 11.5375C49.347 11.4858 49.3212 11.4197 49.3212 11.3393V8.44473H51.0097C51.0442 8.50216 51.1188 8.61128 51.2337 8.77209C51.3486 8.9329 51.4835 9.11668 51.6386 9.32344C51.7937 9.5302 51.9545 9.74557 52.121 9.96955C52.2876 10.1935 52.4398 10.4032 52.5776 10.5984C52.7154 10.7937 52.8303 10.9603 52.9222 11.0981C53.0141 11.2359 53.06 11.3163 53.06 11.3393C53.06 11.5346 52.9337 11.638 52.681 11.6494V11.8562H56.2648V11.6494C56.0695 11.6494 55.9029 11.5461 55.7651 11.3393L53.732 8.47919C54.4442 8.28392 55.0328 7.9623 55.498 7.51433C55.9632 7.06635 56.1958 6.44609 56.1958 5.65352C56.1958 4.67717 55.9087 3.9564 55.3344 3.4912C54.76 3.026 53.8354 2.7934 52.5604 2.7934H46.2543V3.00015C46.4726 3.02312 46.6075 3.06046 46.6592 3.11214C46.7109 3.16383 46.7367 3.22988 46.7367 3.31029V11.3393C46.7367 11.4197 46.7109 11.4858 46.6592 11.5375C46.6075 11.5891 46.4726 11.6265 46.2543 11.6494V11.8562H49.8036ZM49.3199 6.61821H52.2144C52.7198 6.61821 53.0673 6.52345 53.2568 6.33393C53.4464 6.1444 53.5411 5.92328 53.5411 5.67058C53.5411 5.41788 53.4464 5.19677 53.2568 5.00724C53.0673 4.81771 52.7198 4.72295 52.2144 4.72295H49.3199V6.61821ZM65.2763 11.8562C65.8851 11.8562 66.4106 11.7873 66.8528 11.6494C67.2951 11.5116 67.6569 11.3278 67.9383 11.0981C68.2197 10.8684 68.4265 10.5984 68.5586 10.2883C68.6907 9.97817 68.7567 9.6508 68.7567 9.30621C68.7567 8.66297 68.5701 8.1748 68.1968 7.84169C67.8234 7.50858 67.3439 7.26162 66.7581 7.10081V7.06635C67.2405 6.96298 67.6368 6.75335 67.9469 6.43747C68.2571 6.12159 68.4121 5.70521 68.4121 5.18832C68.4121 4.76332 68.3317 4.39863 68.1709 4.09424C68.0101 3.78984 67.7861 3.54289 67.499 3.35336C67.2118 3.16383 66.8729 3.02312 66.4824 2.93123C66.0919 2.83934 65.6611 2.7934 65.1902 2.7934H58.6257V3.00015C58.8439 3.02312 58.9789 3.06046 59.0306 3.11214C59.0823 3.16383 59.1081 3.22988 59.1081 3.31029V11.3393C59.1081 11.4197 59.0823 11.4858 59.0306 11.5375C58.9789 11.5891 58.8439 11.6265 58.6257 11.6494V11.8562H65.2763ZM61.6912 6.20379H64.0344C64.402 6.20379 64.7064 6.19518 64.9476 6.17795C65.1888 6.16072 65.3784 6.12339 65.5162 6.06596C65.654 6.00852 65.7517 5.92812 65.8091 5.82474C65.8665 5.72136 65.8953 5.58352 65.8953 5.41123C65.8953 5.23893 65.8665 5.10109 65.8091 4.99772C65.7517 4.89434 65.654 4.81393 65.5162 4.7565C65.3784 4.69907 65.1888 4.66174 64.9476 4.64451C64.7064 4.62728 64.402 4.61866 64.0344 4.61866H61.6912V6.20379ZM64.6203 10.0293H61.6912V7.96171H64.6203C65.2405 7.96171 65.677 8.03924 65.9297 8.19431C66.1824 8.34937 66.3088 8.61643 66.3088 8.99549C66.3088 9.37454 66.1824 9.6416 65.9297 9.79667C65.677 9.95173 65.2405 10.0293 64.6203 10.0293ZM75.9568 9.8574C75.5778 9.8574 75.2188 9.79997 74.8799 9.68511C74.5411 9.57024 74.2425 9.40656 73.984 9.19406C73.7256 8.98156 73.5188 8.71737 73.3637 8.4015C73.2087 8.08562 73.1311 7.72667 73.1311 7.32464C73.1311 6.92262 73.2087 6.56366 73.3637 6.24779C73.5188 5.93191 73.7256 5.66772 73.984 5.45522C74.2425 5.24272 74.5411 5.07904 74.8799 4.96418C75.2188 4.84931 75.5778 4.79188 75.9568 4.79188C76.3359 4.79188 76.6948 4.84931 77.0337 4.96418C77.3725 5.07904 77.6712 5.24272 77.9296 5.45522C78.188 5.66772 78.3948 5.93191 78.5499 6.24779C78.7049 6.56366 78.7825 6.92262 78.7825 7.32464C78.7825 7.72667 78.7049 8.08562 78.5499 8.4015C78.3948 8.71737 78.188 8.98156 77.9296 9.19406C77.6712 9.40656 77.3725 9.57024 77.0337 9.68511C76.6948 9.79997 76.3359 9.8574 75.9568 9.8574ZM86.8452 11.6494V11.8562H83.5716V11.6494C83.7898 11.6265 83.9248 11.5891 83.9765 11.5375C84.0282 11.4858 84.054 11.4197 84.054 11.3393V3.31029C84.054 3.22988 84.0282 3.16383 83.9765 3.11214C83.9248 3.06046 83.7898 3.02312 83.5716 3.00015V2.7934H87.7239V3.00015C87.5287 3.01164 87.3995 3.03748 87.3363 3.07769C87.2731 3.11789 87.2415 3.16671 87.2415 3.22414C87.2415 3.24711 87.3162 3.35049 87.4655 3.53427C87.6148 3.71805 87.8101 3.94778 88.0513 4.22346C88.2925 4.49913 88.5653 4.8064 88.8697 5.14525C89.1741 5.4841 89.4814 5.82295 89.7915 6.1618C90.1016 6.50065 90.4003 6.82227 90.6875 7.12666C90.9746 7.43105 91.2216 7.69237 91.4283 7.91061V3.31029C91.4283 3.11502 91.3077 3.01164 91.0665 3.00015V2.7934H94.2195V3.00015C94.0013 3.02312 93.8663 3.06046 93.8146 3.11214C93.7629 3.16383 93.7371 3.22988 93.7371 3.31029V11.3393C93.7371 11.4197 93.7629 11.4858 93.8146 11.5375C93.8663 11.5891 94.0013 11.6265 94.2195 11.6494V11.8562H90.9459V11.6494C91.1067 11.6494 91.213 11.6322 91.2646 11.5978C91.3163 11.5633 91.3422 11.5174 91.3422 11.4599C91.3422 11.4255 91.325 11.3824 91.2905 11.3307C91.256 11.279 91.1814 11.19 91.0665 11.0636C90.9516 10.9373 90.7822 10.7564 90.5582 10.5209C90.3342 10.2854 90.0385 9.96955 89.6709 9.57327C89.3033 9.17699 88.8496 8.68307 88.3098 8.09152C87.7699 7.49997 87.1209 6.77919 86.3628 5.9292V11.3393C86.3628 11.4197 86.3886 11.4858 86.4403 11.5375C86.492 11.5891 86.627 11.6265 86.8452 11.6494Z" fill="white"/>
<path fill-rule="evenodd" clip-rule="evenodd" d="M10.8281 0H6.62573V9.46558L14.1982 3.44167L10.8281 0Z" fill="white"/>
<path fill-rule="evenodd" clip-rule="evenodd" d="M8.51978 10.6449L16.0922 16.091V4.81333L16.0121 4.7323L8.51978 10.6449Z" fill="white"/>
<path fill-rule="evenodd" clip-rule="evenodd" d="M6.62573 21.7708H16.0913V19.193L6.62573 12.3052V21.7708Z" fill="white"/>
<path fill-rule="evenodd" clip-rule="evenodd" d="M15.5885 5.19895L15.65 5.25764V5.15352L15.5885 5.19895Z" fill="white"/>
<path fill-rule="evenodd" clip-rule="evenodd" d="M3.78623 19.8777V0H0V16.4732L3.78623 19.8777Z" fill="white"/>
</svg>
