<svg width="40" height="40" viewBox="0 0 40 40" fill="none" xmlns="http://www.w3.org/2000/svg">
<circle cx="20" cy="20" r="20" fill="#EDF0F3"/>
<path d="M22.332 21.5599C22.332 21.8586 22.276 22.1386 22.164 22.3999C22.052 22.6613 21.9 22.8879 21.708 23.0799C21.516 23.2719 21.292 23.4239 21.036 23.5359C20.78 23.6479 20.5027 23.7039 20.204 23.7039C19.9053 23.7039 19.628 23.6479 19.372 23.5359C19.116 23.4239 18.892 23.2719 18.7 23.0799C18.508 22.8879 18.356 22.6613 18.244 22.3999C18.132 22.1386 18.076 21.8586 18.076 21.5599C18.076 21.2719 18.132 20.9973 18.244 20.7359C18.356 20.4746 18.508 20.2479 18.7 20.0559C18.892 19.8639 19.116 19.7119 19.372 19.5999C19.628 19.4879 19.9053 19.4319 20.204 19.4319C20.5027 19.4319 20.78 19.4879 21.036 19.5999C21.292 19.7119 21.516 19.8639 21.708 20.0559C21.9 20.2479 22.052 20.4746 22.164 20.7359C22.276 20.9973 22.332 21.2719 22.332 21.5599ZM14.6727 25.8153C14.374 25.8153 14.1073 25.7886 13.8727 25.7353C13.638 25.682 13.4407 25.5913 13.2807 25.4633C13.1207 25.3353 12.998 25.162 12.9127 24.9433C12.8273 24.7246 12.7847 24.45 12.7847 24.1193V18.7113C12.7847 18.114 12.926 17.698 13.2087 17.4633C13.4913 17.2286 13.9367 17.1113 14.5447 17.1113L16.972 17.1119C17.1427 17.1119 17.284 17.0799 17.396 17.0159C17.508 16.9519 17.5987 16.8666 17.668 16.7599C17.7373 16.6533 17.7987 16.5279 17.852 16.3839C17.9053 16.2399 17.964 16.0933 18.028 15.9439C18.1347 15.6666 18.3213 15.4266 18.588 15.2239C18.8547 15.0213 19.1587 14.9199 19.5 14.9199H20.988C21.3827 14.9199 21.7053 15.0293 21.956 15.2479C22.2067 15.4666 22.3747 15.6986 22.46 15.9439C22.5773 16.2639 22.732 16.5386 22.924 16.7679C23.116 16.9973 23.3187 17.1119 23.532 17.1119L25.8247 17.1113C26.294 17.1006 26.6673 17.2286 26.9447 17.4953C27.222 17.762 27.3607 18.1513 27.3607 18.6633V24.1513C27.3607 24.6953 27.2167 25.1086 26.9287 25.3913C26.6407 25.674 26.2567 25.8153 25.7767 25.8153H14.6727ZM20.172 18.2159C19.7027 18.2159 19.2653 18.3039 18.86 18.4799C18.4547 18.6559 18.1027 18.8959 17.804 19.1999C17.5053 19.5039 17.268 19.8586 17.092 20.2639C16.916 20.6693 16.828 21.1013 16.828 21.5599C16.828 22.0293 16.916 22.4666 17.092 22.8719C17.268 23.2773 17.5053 23.6293 17.804 23.9279C18.1027 24.2266 18.4547 24.4639 18.86 24.6399C19.2653 24.8159 19.7027 24.9039 20.172 24.9039C20.6307 24.9039 21.0627 24.8159 21.468 24.6399C21.8733 24.4639 22.2253 24.2266 22.524 23.9279C22.8227 23.6293 23.06 23.2773 23.236 22.8719C23.412 22.4666 23.5 22.0293 23.5 21.5599C23.5 21.1013 23.412 20.6693 23.236 20.2639C23.06 19.8586 22.8227 19.5039 22.524 19.1999C22.2253 18.8959 21.8733 18.6559 21.468 18.4799C21.0627 18.3039 20.6307 18.2159 20.172 18.2159ZM21.292 16.4879C21.292 16.3173 21.284 16.1839 21.268 16.0879C21.252 15.9919 21.1427 15.9439 20.94 15.9439H19.612C19.4093 15.9333 19.3 15.9759 19.284 16.0719C19.268 16.1679 19.26 16.3066 19.26 16.4879C19.2493 16.6906 19.26 16.8346 19.292 16.9199C19.324 17.0053 19.4307 17.0479 19.612 17.0479H20.94C21.1427 17.0479 21.252 16.9999 21.268 16.9039C21.284 16.8079 21.292 16.6693 21.292 16.4879Z" fill="#8994A5"/>
</svg>
